<svg width="405" height="103" viewBox="0 0 405 103" fill="none" xmlns="http://www.w3.org/2000/svg">
<path d="M207.416 54.9641L220.213 54.9746C222.431 54.9765 224.376 55.1187 226.048 55.4013C227.735 55.6683 229.196 56.0523 230.429 56.5533C231.663 57.0544 232.686 57.6568 233.497 58.3605C234.325 59.0644 234.98 59.8383 235.463 60.6825C235.962 61.511 236.313 62.4019 236.514 63.3552C236.716 64.3085 236.817 65.293 236.815 66.3086C236.814 67.168 236.712 68.0273 236.508 68.8865C236.319 69.7457 235.99 70.5657 235.52 71.3466C235.066 72.1275 234.456 72.8535 233.689 73.5248C232.923 74.196 231.977 74.7812 230.851 75.2803C229.741 75.7793 228.42 76.1689 226.889 76.4489C225.373 76.7289 223.622 76.8681 221.638 76.8664C221.357 76.8662 221.005 76.8659 220.583 76.8656C220.162 76.8496 219.747 76.8258 219.341 76.7942L217.888 76.6993L217.874 88.1133L207.374 88.1047L207.416 54.9641ZM217.895 71.6134L220.309 71.6153C221.434 71.6163 222.379 71.4842 223.145 71.2192C223.911 70.9386 224.529 70.5641 224.998 70.0958C225.467 69.6274 225.804 69.073 226.008 68.4325C226.212 67.7921 226.314 67.1046 226.315 66.3703C226.317 65.1984 226.17 64.2295 225.874 63.4637C225.578 62.6978 225.157 62.0881 224.61 61.6345C224.08 61.1653 223.447 60.8367 222.713 60.6486C221.979 60.4605 221.182 60.3661 220.323 60.3653L217.909 60.3634L217.895 71.6134ZM242.642 54.9931L265.892 55.0122L265.884 61.1528L253.134 61.1423L253.126 68.1501L264.376 68.1594L264.368 74.1594L253.118 74.1501L253.109 81.3923L265.859 81.4028L265.85 88.1528L242.6 88.1337L242.642 54.9931ZM273.514 88.1591L273.556 55.0185L285.088 55.028C287.931 55.0303 290.486 55.3683 292.75 56.0421C295.015 56.7002 296.928 57.7096 298.489 59.0702C300.065 60.4153 301.266 62.1116 302.092 64.1591C302.933 66.1911 303.352 68.582 303.348 71.332C303.346 73.4258 303.124 75.3006 302.685 76.9565C302.261 78.5968 301.65 80.0416 300.851 81.2909C300.068 82.5403 299.114 83.602 297.988 84.4761C296.877 85.3345 295.642 86.0444 294.282 86.6058C292.922 87.1516 291.453 87.5488 289.874 87.7975C288.311 88.0462 286.671 88.1699 284.952 88.1685L273.514 88.1591ZM284.024 80.6677L284.727 80.6683C285.946 80.6693 287.055 80.5608 288.056 80.3429C289.056 80.1093 289.908 79.6569 290.612 78.9856C291.332 78.3143 291.88 77.3695 292.256 76.151C292.648 74.9326 292.846 73.3234 292.848 71.3234C292.851 69.5109 292.681 68.0029 292.338 66.7995C291.996 65.5805 291.489 64.6113 290.819 63.892C290.148 63.1571 289.32 62.6408 288.336 62.3431C287.352 62.0298 286.227 61.8726 284.962 61.8716L284.048 61.8709L284.024 80.6677Z" fill="#D08006"/>
<path d="M176.5 32.5191L186 36.5191L211 76.5191C220 86.5191 198.5 98.0191 192.5 102.019L165.5 54.5191L178 44.0191L176.5 32.5191Z" fill="#C4C4C4" stroke="#C4C4C4"/>
<path d="M178.5 42.5191L175 38.5191L157 8.01911C157 -1.58089 166 0.519104 167.5 3.5191C167.333 3.18577 170.2 8.4191 183 32.0191L186 37.0191L178.5 42.5191Z" fill="#1E1E1E"/>
<path d="M175 38.5191L178.5 42.5191L186 37.0191L183 32.0191M175 38.5191L183 32.0191M175 38.5191L157 8.01911C157 -1.58089 166 0.519104 167.5 3.5191C167.333 3.18577 170.2 8.4191 183 32.0191" stroke="black"/>
<path d="M48.3476 71.5857C48.3509 68.9139 48.8305 66.5158 49.7863 64.3916C50.7578 62.2518 52.0648 60.4403 53.7072 58.9573C55.3498 57.4587 57.2575 56.3118 59.4303 55.5167C61.6032 54.7216 63.9084 54.3251 66.3459 54.3271C68.049 54.3285 69.7832 54.494 71.5484 54.8235C73.3136 55.1531 75.0707 55.7483 76.8196 56.6091L75.357 64.1079C73.983 63.3568 72.6243 62.7932 71.281 62.4171C69.9377 62.041 68.7036 61.8525 67.5786 61.8515C66.2192 61.8504 65.0002 62.076 63.9215 62.5282C62.8428 62.9648 61.928 63.6047 61.1769 64.4478C60.4258 65.291 59.8464 66.3139 59.4386 67.5167C59.0465 68.7195 58.8495 70.0787 58.8476 71.5944C58.8457 73.11 59.0393 74.4695 59.4284 75.673C59.8331 76.8764 60.4099 77.9003 61.1589 78.7447C61.9078 79.5891 62.821 80.2382 63.8986 80.6923C64.9762 81.1306 66.1946 81.3504 67.554 81.3515C68.679 81.3524 69.9136 81.166 71.2578 80.7921C72.6021 80.4182 73.9622 79.8568 75.3381 79.1079L76.7818 86.6091C75.0307 87.4514 73.2722 88.0203 71.5062 88.3157C69.7402 88.6268 68.0056 88.7816 66.3025 88.7802C63.865 88.7782 61.5608 88.3857 59.3899 87.6026C57.219 86.804 55.3142 85.6696 53.6754 84.1995C52.0367 82.7138 50.7343 80.908 49.7682 78.7822C48.8177 76.6564 48.3442 74.2576 48.3476 71.5857ZM83.6889 54.9741L94.1889 54.9828L94.1726 67.8734L103.923 67.8814L103.939 54.9908L114.439 54.9994L114.397 88.14L103.897 88.1314L103.914 74.6314L94.1641 74.6234L94.1471 88.1234L83.6471 88.1147L83.6889 54.9741ZM137.037 88.8383C134.99 88.8366 133.162 88.6086 131.553 88.1541C129.944 87.7153 128.523 87.1048 127.29 86.3225C126.072 85.5246 125.034 84.5863 124.176 83.5074C123.334 82.413 122.64 81.2327 122.095 79.9667C121.565 78.685 121.176 77.3409 120.928 75.9344C120.695 74.528 120.58 73.0982 120.582 71.6451C120.584 70.2076 120.734 68.7859 121.033 67.3798C121.331 65.9582 121.778 64.607 122.374 63.3263C122.969 62.0455 123.721 60.8586 124.628 59.7656C125.536 58.6726 126.599 57.7282 127.819 56.9323C129.039 56.1364 130.415 55.5126 131.947 55.0607C133.494 54.6088 135.205 54.3837 137.08 54.3852C138.955 54.3868 140.658 54.6147 142.189 55.0691C143.735 55.5235 145.117 56.1496 146.335 56.9475C147.568 57.7454 148.637 58.6916 149.542 59.7861C150.447 60.8806 151.196 62.0687 151.788 63.3504C152.395 64.6322 152.847 65.9841 153.142 67.4062C153.437 68.8127 153.584 70.2347 153.582 71.6722C153.58 73.1254 153.453 74.5549 153.201 75.961C152.95 77.367 152.55 78.7104 152.001 79.9912C151.468 81.2564 150.771 82.4355 149.911 83.5286C149.05 84.606 148.01 85.5426 146.79 86.3385C145.57 87.1188 144.148 87.727 142.522 88.1631C140.912 88.6149 139.084 88.84 137.037 88.8383ZM131.082 71.6537C131.08 73.5287 131.21 75.1304 131.474 76.4587C131.754 77.7871 132.143 78.8734 132.642 79.7175C133.157 80.5617 133.781 81.1794 134.515 81.5706C135.264 81.9619 136.108 82.1579 137.045 82.1586C137.983 82.1594 138.819 81.9648 139.554 81.5748C140.304 81.1848 140.938 80.5681 141.455 79.7248C141.987 78.8814 142.387 77.7958 142.654 76.4679C142.937 75.14 143.08 73.5386 143.082 71.6636C143.084 69.7886 142.946 68.1869 142.666 66.8586C142.402 65.5146 142.005 64.4205 141.475 63.5763C140.96 62.7165 140.328 62.0832 139.579 61.6763C138.845 61.2695 138.009 61.0657 137.072 61.0649C136.134 61.0641 135.29 61.2666 134.54 61.6722C133.805 62.0778 133.179 62.7101 132.662 63.5691C132.161 64.4124 131.769 65.5059 131.486 66.8494C131.219 68.1773 131.084 69.7787 131.082 71.6537ZM159.79 55.0367L172.587 55.0472C174.806 55.049 176.751 55.1913 178.423 55.4739C180.11 55.7409 181.57 56.1249 182.804 56.6259C184.038 57.1269 185.06 57.7293 185.872 58.4331C186.699 59.1369 187.355 59.9109 187.838 60.7551C188.337 61.5836 188.687 62.4745 188.889 63.4278C189.091 64.3811 189.191 65.3656 189.19 66.3812C189.189 67.2406 189.086 68.0998 188.882 68.9591C188.694 69.8183 188.364 70.6383 187.895 71.4192C187.441 72.2001 186.83 72.9261 186.064 73.5974C185.297 74.2686 184.351 74.8538 183.226 75.3528C182.116 75.8519 180.795 76.2415 179.263 76.5215C177.747 76.8015 175.997 76.9407 174.013 76.939C173.732 76.9388 173.38 76.9385 172.958 76.9382C172.536 76.9222 172.122 76.8984 171.716 76.8668L170.263 76.7719L170.249 88.1859L159.749 88.1773L159.79 55.0367ZM170.269 71.6859L172.683 71.6879C173.808 71.6889 174.754 71.5568 175.52 71.2918C176.286 71.0112 176.904 70.6367 177.373 70.1683C177.842 69.7 178.179 69.1456 178.383 68.5051C178.587 67.8647 178.689 67.1772 178.69 66.4429C178.692 65.271 178.544 64.3021 178.248 63.5363C177.953 62.7704 177.531 62.1607 176.985 61.7071C176.454 61.2379 175.822 60.9093 175.088 60.7212C174.354 60.533 173.557 60.4386 172.698 60.4379L170.284 60.436L170.269 71.6859Z" fill="#D08006"/>
<path d="M196.127 86.558C196.186 89.5094 196.486 91.9176 197.028 93.7826C197.597 92.2391 198.055 90.517 198.4 88.6163C198.77 86.6914 198.947 85.333 198.931 84.5412C198.88 81.9977 198.53 80.7302 197.882 80.7386C197.33 80.7459 196.888 81.4477 196.556 82.8441C196.248 84.2163 196.105 85.4542 196.127 86.558ZM201.691 98.2939L203.052 97.916C203.364 97.9119 203.523 98.0419 203.528 98.3058C203.532 98.5218 203.335 98.8604 202.936 99.3216C202.537 99.7589 201.958 100.222 201.2 100.712C200.442 101.202 199.703 101.452 198.983 101.462C197.399 101.482 196.241 100.633 195.511 98.9148C194.153 100.637 192.586 101.509 190.811 101.533C189.899 101.544 189.232 101.217 188.81 100.551C188.39 99.9081 188.169 99.0949 188.149 98.1111C188.123 96.7914 188.816 95.4262 190.227 94.0157C191.663 92.6048 192.801 91.8939 193.641 91.8829C193.857 91.88 194.004 92.0101 194.081 92.2731C194.085 92.4651 193.779 92.7691 193.163 93.1852C192.239 93.7733 191.786 94.5233 191.804 95.4351C191.825 96.4429 192.114 97.0872 192.671 97.3679C193.084 97.6025 193.458 97.7176 193.794 97.7132C194.154 97.7085 194.535 97.5355 194.936 97.1942C194.646 95.9019 194.483 94.344 194.446 92.5204C194.409 90.6727 194.514 88.7272 194.761 86.6839C195.032 84.6162 195.486 82.7381 196.124 81.0497C196.786 79.3609 197.549 78.5109 198.413 78.4996C198.965 78.4923 199.381 78.8709 199.66 79.6353C199.94 80.3997 200.091 81.3458 200.113 82.4735C200.136 83.6013 199.934 85.4761 199.506 88.0978C199.102 90.6953 198.454 93.0799 197.562 95.2517C198.491 97.3037 199.868 98.3177 201.691 98.2939ZM212.714 95.3774L212.59 96.3871C212.599 96.819 212.788 97.2725 213.158 97.7477C213.551 98.1986 213.999 98.4207 214.503 98.4141C214.887 98.4091 215.198 98.321 215.434 98.1499C215.955 97.7831 216.274 97.5389 216.392 97.4174C216.533 97.2715 216.747 97.1967 217.035 97.1929C217.347 97.1888 217.505 97.2948 217.51 97.5107C217.515 97.7507 216.966 98.5139 215.863 99.8004C215.512 100.213 214.992 100.652 214.306 101.117C213.619 101.582 213 101.818 212.448 101.825C211.92 101.832 211.51 101.742 211.218 101.553C210.951 101.389 210.753 101.115 210.625 100.733C210.471 100.207 210.386 99.5601 210.37 98.7923C210.368 98.6963 210.307 98.6491 210.187 98.6507C210.067 98.6522 209.796 98.8958 209.374 99.3813C208.058 100.791 206.98 101.501 206.14 101.512C205.324 101.522 204.684 101.315 204.219 100.889C203.779 100.463 203.552 99.9136 203.538 99.2417C203.514 98.066 203.804 96.9461 204.407 95.8822C205.009 94.7942 205.736 93.9206 206.587 93.2615C208.478 91.8206 209.952 91.0933 211.007 91.0795C212.592 91.1067 213.396 91.6602 213.417 92.74C213.425 93.1239 213.265 93.51 212.936 93.8984C212.608 94.2627 212.299 94.4467 212.011 94.4505C211.723 94.4543 211.322 94.2075 210.808 93.7102C210.294 93.2129 209.737 92.9682 209.137 92.9761C208.537 92.9839 208.05 93.2423 207.677 93.7512C207.302 94.2362 207.123 94.8625 207.138 95.6304C207.163 96.8781 207.836 97.4934 209.156 97.4761C209.684 97.4692 210.113 97.3315 210.444 97.0632C210.798 96.7945 211.044 96.5033 211.182 96.1895C211.574 95.3683 211.937 94.9555 212.273 94.9511C212.561 94.9473 212.708 95.0894 212.714 95.3774ZM210.079 88.9675C210.07 88.4876 210.446 88.1226 211.209 87.8726C212.375 87.3533 214.279 86.5483 216.922 85.4577C217.329 81.8041 218.012 79.9711 218.972 79.9585C219.596 79.9503 219.928 80.942 219.968 82.9336C219.979 83.5095 219.976 83.9416 219.958 84.2299C223.578 82.7904 226.008 81.9065 227.25 81.5782C228.491 81.25 229.484 81.0809 230.228 81.0712C231.356 81.0564 231.928 81.457 231.945 82.2728C231.95 82.5368 231.786 82.7549 231.454 82.9273C229.981 83.6906 229.064 84.0746 228.704 84.0793C228.632 84.0803 228.511 84.0339 228.341 83.9401C228.171 83.8223 227.978 83.7648 227.762 83.7677C227.546 83.7705 227.104 83.8603 226.435 84.037C225.074 84.4149 222.845 85.1401 219.746 86.2128C219.495 88.0881 219.102 89.4374 218.567 90.2604C218.718 92.9946 219.115 94.8375 219.758 95.7892C220.055 96.2413 220.471 96.6319 221.006 96.9609C221.564 97.2896 222.24 97.4488 223.032 97.4384C223.824 97.4281 224.596 97.0579 225.35 96.328C225.491 96.1822 225.609 96.1086 225.705 96.1073C225.897 96.1048 225.997 96.2595 226.003 96.5715C226.023 97.5793 225.372 98.6079 224.048 99.6572C222.725 100.683 221.451 101.203 220.227 101.219C217.803 101.251 216.552 99.2994 216.473 95.3642C216.423 92.8927 216.514 90.2273 216.744 87.3681C214.768 88.162 213.317 88.8051 212.39 89.2972C211.44 89.7897 210.881 90.037 210.713 90.0392C210.545 90.0414 210.398 89.9234 210.274 89.685C210.149 89.4466 210.084 89.2074 210.079 88.9675ZM234.193 95.0962L234.069 96.1058C234.078 96.5378 234.267 96.9913 234.636 97.4665C235.03 97.9174 235.478 98.1395 235.982 98.1329C236.366 98.1279 236.676 98.0398 236.913 97.8687C237.434 97.5019 237.753 97.2577 237.87 97.1361C238.011 96.9903 238.226 96.9155 238.514 96.9117C238.826 96.9076 238.984 97.0136 238.988 97.2295C238.993 97.4695 238.444 98.2327 237.342 99.5192C236.99 99.9318 236.471 100.371 235.784 100.836C235.098 101.301 234.478 101.537 233.926 101.544C233.398 101.551 232.988 101.46 232.697 101.272C232.429 101.108 232.232 100.834 232.104 100.452C231.949 99.9258 231.864 99.2789 231.849 98.5111C231.847 98.4151 231.786 98.3679 231.666 98.3694C231.546 98.371 231.275 98.6146 230.853 99.1001C229.537 100.509 228.459 101.22 227.619 101.231C226.803 101.241 226.163 101.034 225.698 100.608C225.257 100.181 225.03 99.6324 225.017 98.9605C224.993 97.7848 225.283 96.6649 225.885 95.601C226.488 94.513 227.214 93.6394 228.065 92.9803C229.957 91.5394 231.43 90.8121 232.486 90.7982C234.071 90.8255 234.874 91.379 234.896 92.4588C234.904 92.8427 234.743 93.2288 234.415 93.6172C234.086 93.9815 233.778 94.1655 233.49 94.1693C233.202 94.1731 232.801 93.9263 232.287 93.429C231.773 92.9317 231.216 92.687 230.616 92.6948C230.016 92.7027 229.529 92.9611 229.155 93.47C228.781 93.9549 228.601 94.5813 228.617 95.3492C228.642 96.5969 229.314 97.2122 230.634 97.1949C231.162 97.188 231.592 97.0503 231.922 96.782C232.277 96.5133 232.523 96.2221 232.661 95.9083C233.052 95.0871 233.416 94.6743 233.752 94.6699C234.04 94.6661 234.187 94.8082 234.193 95.0962ZM240.027 92.6436C240.71 92.0106 241.306 90.5868 241.813 88.372C242.344 86.1329 242.597 84.3775 242.572 83.1057C242.546 81.834 242.305 81.2011 241.849 81.2071C241.154 81.2162 240.609 82.1954 240.216 84.1446C239.823 86.0939 239.64 87.7164 239.666 89.0121C239.691 90.2839 239.812 91.4944 240.027 92.6436ZM241.206 101.161C240.558 101.169 239.99 100.949 239.501 100.499C239.035 100.049 238.677 99.5497 238.426 99.001C238.199 98.4519 238.018 97.7823 237.882 96.992C237.421 94.3579 237.572 91.1157 238.335 87.2655C238.79 84.8354 239.444 82.7627 240.298 81.0474C241.151 79.3081 242.034 78.4325 242.946 78.4206C243.33 78.4155 243.634 78.6515 243.86 79.1286C244.109 79.5814 244.238 79.9997 244.245 80.3837C244.268 82.6875 243.85 85.2131 242.993 87.9605C242.136 90.6839 241.239 92.6398 240.303 93.8281C241.099 96.4338 242.289 97.7263 243.873 97.7056C244.257 97.7006 244.687 97.5869 245.163 97.3647C244.22 97.041 243.738 96.3633 243.717 95.3315C243.696 94.2757 244.06 93.2509 244.808 92.257C245.58 91.2628 246.386 90.7603 247.226 90.7493C247.49 90.7458 247.708 90.851 247.881 91.0647C248.076 91.2542 248.177 91.4929 248.183 91.7808C248.189 92.0687 248.135 92.3695 248.021 92.683C247.907 92.9965 247.854 93.3212 247.861 93.6571C247.875 94.353 248.338 94.695 249.249 94.683C249.561 94.6789 249.931 94.5421 250.357 94.2725C250.784 93.9789 251.069 93.8312 251.213 93.8293C251.525 93.8252 251.683 93.9431 251.688 94.1831C251.693 94.423 251.471 94.7619 251.024 95.1998C250.576 95.6137 249.925 96.0543 249.07 96.5215C248.215 96.9647 247.333 97.2523 246.423 97.3842C245.441 99.8692 243.702 101.128 241.206 101.161ZM258.167 94.7823L258.043 95.792C258.052 96.2239 258.241 96.6774 258.611 97.1526C259.004 97.6035 259.453 97.8256 259.957 97.819C260.341 97.814 260.651 97.7259 260.887 97.5548C261.408 97.188 261.727 96.9438 261.845 96.8223C261.986 96.6764 262.2 96.6016 262.488 96.5978C262.8 96.5937 262.959 96.6997 262.963 96.9156C262.968 97.1556 262.419 97.9188 261.317 99.2053C260.965 99.6179 260.446 100.057 259.759 100.522C259.072 100.987 258.453 101.223 257.901 101.23C257.373 101.237 256.963 101.146 256.671 100.958C256.404 100.794 256.206 100.52 256.078 100.138C255.924 99.6119 255.839 98.965 255.823 98.1972C255.821 98.1012 255.761 98.054 255.641 98.0556C255.521 98.0571 255.249 98.3007 254.827 98.7863C253.511 100.196 252.433 100.906 251.593 100.917C250.777 100.927 250.137 100.72 249.672 100.294C249.232 99.8676 249.005 99.3185 248.991 98.6466C248.968 97.4709 249.257 96.351 249.86 95.2871C250.462 94.1991 251.189 93.3255 252.04 92.6664C253.931 91.2255 255.405 90.4982 256.461 90.4844C258.045 90.5116 258.849 91.0651 258.87 92.1449C258.878 92.5288 258.718 92.915 258.39 93.3033C258.061 93.6676 257.752 93.8516 257.464 93.8554C257.177 93.8592 256.775 93.6124 256.261 93.1151C255.747 92.6178 255.19 92.3731 254.59 92.381C253.99 92.3888 253.504 92.6472 253.13 93.1561C252.755 93.6411 252.576 94.2674 252.591 95.0353C252.616 96.283 253.289 96.8983 254.609 96.881C255.137 96.8741 255.566 96.7365 255.897 96.4681C256.251 96.1994 256.498 95.9082 256.635 95.5944C257.027 94.7732 257.391 94.3604 257.727 94.356C258.015 94.3522 258.161 94.4943 258.167 94.7823ZM269.438 96.9389C269.63 96.9363 269.939 96.7883 270.366 96.4947C270.792 96.2011 271.134 95.9086 271.392 95.6172L271.78 95.2161C271.945 95.0459 272.111 94.9597 272.279 94.9575C272.567 94.9538 272.714 95.1199 272.721 95.4558C272.724 95.5758 272.713 95.6719 272.691 95.7442C272.097 97.2641 270.97 98.4909 269.308 99.4247C267.647 100.383 266.157 100.87 264.837 100.887C262.269 100.921 260.965 99.93 260.924 97.9144C260.919 97.6504 261.223 97.2264 261.835 96.6424C262.447 96.0583 262.896 95.6924 263.181 95.5447C263.37 95.3982 263.513 95.3243 263.609 95.3231C263.729 95.3215 263.826 95.3682 263.9 95.4633C263.974 95.5583 264.06 95.6772 264.159 95.8199C264.258 95.9626 264.344 96.0815 264.418 96.1765C264.492 96.2716 264.591 96.4023 264.714 96.5687C264.837 96.7351 264.96 96.8775 265.083 96.9959C265.229 97.09 265.387 97.1839 265.556 97.2777C265.873 97.5136 266.2 97.6293 266.536 97.6249C266.896 97.6202 267.071 97.4139 267.063 97.0059C267.043 95.9982 266.654 95.1392 265.895 94.4291C265.136 93.695 264.505 93.3312 264.001 93.3378C263.881 93.3394 263.763 93.4129 263.645 93.5585L262.34 94.9077C262.129 95.1264 261.975 95.2365 261.879 95.2377C261.519 95.2424 261.336 95.0888 261.33 94.7769C263.834 91.5999 265.326 90.0083 265.806 90.002C266.478 89.9932 267.255 90.439 268.138 91.3395C269.02 92.24 269.47 93.1462 269.489 94.058C269.506 94.9218 269.447 95.5827 269.312 96.0404C269.201 96.4979 269.147 96.7627 269.148 96.8346C269.15 96.9066 269.246 96.9414 269.438 96.9389ZM274.059 95.0422C274.464 94.8929 274.863 94.4317 275.255 93.6585C275.671 92.861 275.874 92.2103 275.864 91.7064C275.854 91.2025 275.657 90.9411 275.272 90.9221C274.696 90.9296 274.294 91.1989 274.064 91.73C273.834 92.237 273.726 92.8025 273.738 93.4263C273.75 94.0262 273.857 94.5649 274.059 95.0422ZM277.202 97.3412C277.874 97.3324 278.423 97.1812 278.849 96.8876C279.298 96.5697 279.71 96.1683 280.085 95.6834C280.483 95.1981 280.79 94.9541 281.006 94.9513C281.246 94.9481 281.368 95.0546 281.373 95.2705C281.376 95.4145 281.331 95.5831 281.239 95.7763C280.473 97.0584 279.511 98.1871 278.354 99.1623C277.198 100.161 275.96 100.67 274.64 100.687C273.32 100.704 272.354 100.393 271.741 99.7529C271.153 99.1365 270.848 98.3005 270.827 97.2447C270.79 95.4211 271.436 93.5525 272.766 91.639C274.096 89.7014 275.492 88.7231 276.956 88.7039C277.724 88.6939 278.114 89.0008 278.127 89.6247C278.144 90.4645 277.897 91.3438 277.388 92.2625C276.878 93.1572 275.93 94.3817 274.545 95.9359C275.212 96.8873 276.098 97.3557 277.202 97.3412Z" fill="#D95402"/>
</svg>
