<svg width="96" height="96" viewBox="0 0 96 96" fill="none" xmlns="http://www.w3.org/2000/svg">
<path d="M55.1868 29.7106C56.5905 29.3597 60.938 29.077 62.9362 28.9795C63.3262 28.9795 65.599 28.4332 70.9781 29.7106C76.1664 30.9428 78.3376 38.0449 78.5813 41.8465C79.1174 46.4767 80.3944 57.8132 81.2132 66.1183C82.032 74.4233 72.1039 78.6304 62.6039 78.6304C52.0148 78.6304 45.3903 72.8179 45.3904 66.1183C45.3904 61.9236 46.9695 49.2158 47.4374 41.8465C48.0223 32.6349 53.4322 30.1493 55.1868 29.7106Z" fill="#F6EDC0"/>
<path fill-rule="evenodd" clip-rule="evenodd" d="M62.8584 26.981C62.8737 26.9794 62.9023 26.9764 62.9482 26.9712L62.9703 26.9687C63.0776 26.9566 63.2339 26.9389 63.4239 26.922C63.8373 26.8852 64.3976 26.8534 65.122 26.8664C66.569 26.8923 68.6252 27.0962 71.4402 27.7647C74.8551 28.5757 77.0723 31.2624 78.417 33.9091C79.7642 36.5608 80.429 39.529 80.5737 41.6656C81.1135 46.3298 82.3859 57.6292 83.2035 65.922C83.7132 71.0919 80.7929 74.8686 76.7891 77.2144C72.8342 79.5314 67.6017 80.6304 62.6039 80.6304C51.431 80.6304 43.3903 74.3796 43.3904 66.1182C43.3904 63.8975 43.7998 59.5483 44.248 54.9777C44.3011 54.4358 44.355 53.8894 44.409 53.3413C44.8179 49.191 45.2372 44.9357 45.4414 41.7198C45.7595 36.7107 47.4109 33.3463 49.3869 31.1508C51.3339 28.9874 53.4933 28.0725 54.7017 27.7703C55.5902 27.5482 57.1983 27.3805 58.6715 27.257C60.2117 27.128 61.8219 27.0315 62.8388 26.9819L62.8584 26.981ZM78.5813 41.8465C78.3376 38.0449 76.1664 30.9428 70.9781 29.7106C66.3129 28.6027 63.9842 28.8666 63.1938 28.9562C63.0729 28.9699 62.988 28.9795 62.9362 28.9795C60.938 29.077 56.5905 29.3597 55.1868 29.7106C53.4322 30.1493 48.0223 32.6349 47.4374 41.8465C47.2308 45.1002 46.8076 49.3945 46.3994 53.5374C45.8829 58.7777 45.3904 63.7756 45.3904 66.1183C45.3903 72.8179 52.0148 78.6304 62.6039 78.6304C72.1039 78.6304 82.032 74.4233 81.2132 66.1183C80.3944 57.8132 79.1174 46.4767 78.5813 41.8465Z" fill="#66592B"/>
<path d="M78.4817 69.6929C78.4817 73.2137 71.696 76.0679 63.3254 76.0679C54.9549 76.0679 48.1692 73.2137 48.1692 69.6929C48.1692 66.1721 54.9549 63.3179 63.3254 63.3179C71.696 63.3179 78.4817 66.1721 78.4817 69.6929Z" fill="#E3D99C"/>
<path fill-rule="evenodd" clip-rule="evenodd" d="M62.6086 28.9961C63.75 29.1056 65.1852 29.3283 66.958 29.7494C72.1422 30.9806 74.3117 38.0771 74.5552 41.8757C75.0909 46.5022 76.3668 57.8297 77.185 66.1282C77.9436 73.8223 69.471 77.9963 60.6671 78.5636C61.2968 78.6077 61.9426 78.6304 62.6039 78.6304C72.1039 78.6304 82.032 74.4233 81.2132 66.1183C80.3944 57.8132 79.1174 46.4767 78.5813 41.8465C78.3376 38.0449 76.1664 30.9428 70.9781 29.7106C66.3129 28.6027 63.9842 28.8666 63.1939 28.9562C63.0729 28.9699 62.988 28.9795 62.9363 28.9795C62.8331 28.9846 62.7236 28.9901 62.6086 28.9961Z" fill="#D0C791"/>
<path d="M79.2912 60.1409C79.3038 61.021 78.6706 61.7438 77.8768 61.7552C77.0829 61.7666 76.4291 61.0624 76.4165 60.1823C76.4038 59.3022 77.0371 58.5794 77.8309 58.568C78.6247 58.5566 79.2785 59.2608 79.2912 60.1409Z" fill="#BAAE69"/>
<path d="M79.919 65.4534C79.9316 66.3335 79.2984 67.0563 78.5046 67.0677C77.7107 67.0791 77.0569 66.3749 77.0443 65.4948C77.0316 64.6147 77.6649 63.8919 78.4587 63.8805C79.2525 63.8691 79.9063 64.5733 79.919 65.4534Z" fill="#BAAE69"/>
<path d="M74.5851 64.87C74.5978 65.7502 73.9645 66.4729 73.1707 66.4843C72.3769 66.4957 71.7231 65.7915 71.7104 64.9114C71.6978 64.0313 72.331 63.3086 73.1249 63.2971C73.9187 63.2857 74.5725 63.9899 74.5851 64.87Z" fill="#BAAE69"/>
<path d="M69.2516 63.3694C69.2643 64.2495 68.631 64.9723 67.8372 64.9837C67.0434 64.9951 66.3896 64.2909 66.3769 63.4108C66.3643 62.5307 66.9975 61.8079 67.7914 61.7965C68.5852 61.7851 69.239 62.4893 69.2516 63.3694Z" fill="#BAAE69"/>
<path d="M71.1745 69.7743C71.1871 70.6545 70.5539 71.3772 69.7601 71.3886C68.9662 71.4 68.3124 70.6958 68.2998 69.8157C68.2871 68.9356 68.9204 68.2128 69.7142 68.2014C70.508 68.19 71.1618 68.8942 71.1745 69.7743Z" fill="#BAAE69"/>
<path d="M67.4063 74.7165C67.419 75.5966 66.7857 76.3193 65.9919 76.3307C65.198 76.3422 64.5443 75.6379 64.5316 74.7578C64.5189 73.8777 65.1522 73.155 65.946 73.1436C66.7398 73.1321 67.3936 73.8364 67.4063 74.7165Z" fill="#BAAE69"/>
<path d="M62.2786 72.4774C62.2871 73.0673 61.8626 73.5518 61.3305 73.5594C60.7984 73.5671 60.3602 73.0951 60.3517 72.5051C60.3432 71.9152 60.7677 71.4307 61.2998 71.4231C61.8319 71.4154 62.2701 71.8875 62.2786 72.4774Z" fill="#BAAE69"/>
<path d="M58.106 73.6412C58.1145 74.2312 57.69 74.7156 57.1579 74.7233C56.6258 74.7309 56.1875 74.2589 56.1791 73.6689C56.1706 73.079 56.595 72.5946 57.1271 72.5869C57.6593 72.5793 58.0975 73.0513 58.106 73.6412Z" fill="#BAAE69"/>
<path d="M61.3305 68.7268C61.3389 69.3167 60.9145 69.8012 60.3824 69.8088C59.8503 69.8165 59.412 69.3445 59.4035 68.7545C59.3951 68.1646 59.8195 67.6801 60.3516 67.6725C60.8837 67.6648 61.322 68.1369 61.3305 68.7268Z" fill="#BAAE69"/>
<path d="M71.7029 73.3518C71.7114 73.9417 71.2869 74.4262 70.7548 74.4338C70.2227 74.4415 69.7845 73.9695 69.776 73.3795C69.7675 72.7896 70.192 72.3051 70.7241 72.2975C71.2562 72.2898 71.6944 72.7619 71.7029 73.3518Z" fill="#BAAE69"/>
<path d="M64.289 64.4582C64.2974 65.0482 63.873 65.5326 63.3409 65.5403C62.8088 65.5479 62.3705 65.0759 62.362 64.486C62.3536 63.896 62.778 63.4116 63.3101 63.4039C63.8422 63.3963 64.2805 63.8683 64.289 64.4582Z" fill="#BAAE69"/>
<path d="M68.5787 59.3034C68.5855 59.7803 68.2425 60.1718 67.8124 60.178C67.3823 60.1842 67.0281 59.8027 67.0212 59.3258C67.0143 58.849 67.3574 58.4574 67.7875 58.4513C68.2176 58.4451 68.5718 58.8266 68.5787 59.3034Z" fill="#BAAE69"/>
<path d="M76.3812 56.8972C76.388 57.374 76.0449 57.7656 75.6149 57.7718C75.1848 57.778 74.8306 57.3964 74.8237 56.9196C74.8168 56.4428 75.1599 56.0512 75.59 56.045C76.0201 56.0388 76.3743 56.4204 76.3812 56.8972Z" fill="#BAAE69"/>
<path d="M78.6325 52.4909C78.6394 52.9678 78.2963 53.3593 77.8662 53.3655C77.4361 53.3717 77.0819 52.9902 77.075 52.5133C77.0682 52.0365 77.4113 51.6449 77.8414 51.6388C78.2714 51.6326 78.6257 52.0141 78.6325 52.4909Z" fill="#BAAE69"/>
<path d="M74.5957 55.1479C74.6025 55.6248 74.2594 56.0163 73.8293 56.0225C73.3992 56.0287 73.045 55.6472 73.0382 55.1703C73.0313 54.6935 73.3744 54.3019 73.8045 54.2957C74.2346 54.2896 74.5888 54.6711 74.5957 55.1479Z" fill="#BAAE69"/>
<path d="M76.5913 62.6168C76.5981 63.0936 76.255 63.4852 75.8249 63.4914C75.3949 63.4976 75.0406 63.116 75.0338 62.6392C75.0269 62.1624 75.37 61.7708 75.8001 61.7646C76.2302 61.7584 76.5844 62.14 76.5913 62.6168Z" fill="#BAAE69"/>
<path d="M71.3305 65.8678C71.3374 66.3446 70.9943 66.7362 70.5642 66.7424C70.1341 66.7485 69.7799 66.367 69.773 65.8902C69.7662 65.4133 70.1093 65.0218 70.5394 65.0156C70.9694 65.0094 71.3237 65.3909 71.3305 65.8678Z" fill="#BAAE69"/>
<path d="M77.2844 70.2809C77.3024 71.5373 76.3984 72.5691 75.2652 72.5854C74.1319 72.6017 73.1986 71.5964 73.1806 70.3399C73.1625 69.0835 74.0665 68.0518 75.1997 68.0355C76.333 68.0192 77.2663 69.0245 77.2844 70.2809Z" fill="#BAAE69"/>
<path d="M67.3966 69.034C67.4146 70.2904 66.5106 71.3221 65.3774 71.3384C64.2441 71.3547 63.3108 70.3494 63.2927 69.093C63.2747 67.8366 64.1787 66.8048 65.3119 66.7885C66.4452 66.7722 67.3785 67.7775 67.3966 69.034Z" fill="#BAAE69"/>
<path d="M74.1997 59.7805C74.2177 61.037 73.3137 62.0687 72.1805 62.085C71.0472 62.1013 70.1139 61.096 70.0958 59.8396C70.0778 58.5832 70.9818 57.5514 72.115 57.5351C73.2483 57.5188 74.1816 58.5241 74.1997 59.7805Z" fill="#BAAE69"/>
<path fill-rule="evenodd" clip-rule="evenodd" d="M52.1997 37.7023C52.6433 38.0314 52.7361 38.6577 52.407 39.1012C52.0826 39.5385 51.0673 41.6465 50.7253 45.6529C50.3758 49.7471 50.0803 53.7254 49.9764 55.2006C49.9376 55.7515 49.4596 56.1667 48.9086 56.1279C48.3577 56.0891 47.9426 55.611 47.9814 55.0601C48.0858 53.577 48.382 49.5886 48.7325 45.4828C49.0905 41.2892 50.1669 38.7639 50.8008 37.9095C51.1299 37.466 51.7562 37.3732 52.1997 37.7023Z" fill="white"/>
<path fill-rule="evenodd" clip-rule="evenodd" d="M71.084 40.8627C70.2579 40.9253 69.639 41.6457 69.7016 42.4718L71.6024 67.5477C71.665 68.3738 72.3855 68.9927 73.2115 68.9301C74.0376 68.8675 74.6565 68.147 74.5938 67.321L72.693 42.245C72.6304 41.419 71.91 40.8001 71.084 40.8627Z" fill="#C0B576"/>
<path fill-rule="evenodd" clip-rule="evenodd" d="M54.496 40.8627C55.3221 40.9253 55.9409 41.6457 55.8783 42.4718L53.9775 67.5477C53.9149 68.3738 53.1945 68.9927 52.3684 68.9301C51.5424 68.8675 50.9235 68.147 50.9861 67.321L52.8869 42.245C52.9495 41.419 53.6699 40.8001 54.496 40.8627Z" fill="#D0C791"/>
<path fill-rule="evenodd" clip-rule="evenodd" d="M62.6438 42.3204C63.4722 42.3204 64.1438 42.992 64.1438 43.8204V71.3089C64.1438 72.1374 63.4722 72.8089 62.6438 72.8089C61.8154 72.8089 61.1438 72.1374 61.1438 71.3089V43.8204C61.1438 42.992 61.8154 42.3204 62.6438 42.3204Z" fill="#AEA467"/>
<path d="M62.6203 36.011C68.4345 36.011 73.1478 34.1846 73.1478 31.9316V20.9646H52.0928V31.9316C52.0928 34.1846 56.8061 36.011 62.6203 36.011Z" fill="#C8BC78"/>
<path fill-rule="evenodd" clip-rule="evenodd" d="M50.0928 20.9646C50.0928 19.86 50.9882 18.9646 52.0928 18.9646H73.1478C74.2524 18.9646 75.1478 19.86 75.1478 20.9646V31.9316C75.1478 33.2464 74.4523 34.2788 73.6715 34.9942C72.8921 35.7083 71.8749 36.2595 70.787 36.6811C68.5982 37.5292 65.7102 38.011 62.6203 38.011C59.5304 38.011 56.6424 37.5292 54.4536 36.6811C53.3656 36.2595 52.3485 35.7083 51.569 34.9942C50.7882 34.2788 50.0928 33.2464 50.0928 31.9316V20.9646ZM73.1478 31.9316C73.1478 34.1846 68.4345 36.011 62.6203 36.011C56.8061 36.011 52.0928 34.1846 52.0928 31.9316V20.9646H73.1478V31.9316Z" fill="#66592B"/>
<path d="M73.1478 31.9316V20.9646H68.3226L68.509 35.3136C71.3078 34.5804 73.1478 33.3393 73.1478 31.9316Z" fill="#AA9C4E"/>
<path d="M73.1478 21.1291C73.1478 23.3821 68.4345 25.2085 62.6203 25.2085C56.8061 25.2085 52.0928 23.3821 52.0928 21.1291C52.0928 18.8761 56.8061 17.0497 62.6203 17.0497C68.4345 17.0497 73.1478 18.8761 73.1478 21.1291Z" fill="#D6CD9F"/>
<path fill-rule="evenodd" clip-rule="evenodd" d="M70.787 25.8786C68.5982 26.7267 65.7102 27.2085 62.6203 27.2085C59.5304 27.2085 56.6424 26.7267 54.4536 25.8786C53.3656 25.457 52.3485 24.9058 51.569 24.1917C50.7882 23.4763 50.0928 22.4439 50.0928 21.1291C50.0928 19.8143 50.7882 18.7819 51.569 18.0665C52.3485 17.3524 53.3656 16.8012 54.4536 16.3796C56.6424 15.5315 59.5304 15.0497 62.6203 15.0497C65.7102 15.0497 68.5982 15.5315 70.787 16.3796C71.8749 16.8012 72.8921 17.3524 73.6715 18.0665C74.4523 18.7819 75.1478 19.8143 75.1478 21.1291C75.1478 22.4439 74.4523 23.4763 73.6715 24.1917C72.8921 24.9058 71.8749 25.457 70.787 25.8786ZM62.6203 25.2085C68.4345 25.2085 73.1478 23.3821 73.1478 21.1291C73.1478 18.8761 68.4345 17.0497 62.6203 17.0497C56.8061 17.0497 52.0928 18.8761 52.0928 21.1291C52.0928 23.3821 56.8061 25.2085 62.6203 25.2085Z" fill="#66592B"/>
<path d="M65.3906 21.1291C65.3906 22.5104 62.5009 23.6302 58.9362 23.6302C55.3715 23.6302 52.4818 22.5104 52.4818 21.1291C52.4818 19.7478 55.3715 18.628 58.9362 18.628C62.5009 18.628 65.3906 19.7478 65.3906 21.1291Z" fill="#FFFBE2"/>
<path d="M65.3906 20.9646C65.3906 21.7324 64.2702 22.3549 62.8881 22.3549C61.506 22.3549 60.3856 21.7324 60.3856 20.9646C60.3856 20.1968 61.506 19.5743 62.8881 19.5743C64.2702 19.5743 65.3906 20.1968 65.3906 20.9646Z" fill="#66592B"/>
<path fill-rule="evenodd" clip-rule="evenodd" d="M54.8539 27.5054C55.4062 27.5054 55.8539 27.9531 55.8539 28.5054V32.4429C55.8539 32.9952 55.4062 33.4429 54.8539 33.4429C54.3016 33.4429 53.8539 32.9952 53.8539 32.4429V28.5054C53.8539 27.9531 54.3016 27.5054 54.8539 27.5054Z" fill="#F0E5A8"/>
<path d="M24.5358 38.0306C25.9395 37.6797 30.287 37.397 32.2852 37.2995C32.6752 37.2995 34.948 36.7531 40.3271 38.0306C45.5154 39.2627 47.6866 46.3649 47.9303 50.1665C48.4664 54.7966 49.7434 66.1332 50.5622 74.4382C51.381 82.7432 41.4529 86.9503 31.9529 86.9503C21.3638 86.9503 14.7393 81.1378 14.7394 74.4382C14.7394 70.2435 16.3185 57.5357 16.7864 50.1665C17.3713 40.9549 22.7812 38.4692 24.5358 38.0306Z" fill="#DBF3FE"/>
<path fill-rule="evenodd" clip-rule="evenodd" d="M32.2074 35.3009C32.2227 35.2993 32.2513 35.2964 32.2972 35.2912L32.3193 35.2887C32.4266 35.2765 32.5829 35.2588 32.7729 35.2419C33.1863 35.2052 33.7466 35.1733 34.471 35.1863C35.918 35.2122 37.9742 35.4162 40.7892 36.0847C44.2041 36.8957 46.4213 39.5824 47.766 42.229C49.1132 44.8807 49.778 47.849 49.9227 49.9855C50.4625 54.6497 51.7349 65.9491 52.5525 74.242C53.0622 79.4118 50.1419 83.1886 46.1381 85.5343C42.1832 87.8514 36.9507 88.9503 31.9529 88.9503C20.78 88.9503 12.7393 82.6995 12.7394 74.4382C12.7394 72.2174 13.1488 67.8683 13.597 63.2976C13.6501 62.7557 13.704 62.2094 13.758 61.6612C14.1669 57.5109 14.5862 53.2556 14.7904 50.0397C15.1085 45.0307 16.7599 41.6662 18.7359 39.4707C20.6829 37.3074 22.8423 36.3924 24.0507 36.0903C24.9392 35.8682 26.5473 35.7004 28.0205 35.577C29.5607 35.4479 31.1709 35.3515 32.1878 35.3019L32.2074 35.3009ZM47.9303 50.1665C47.6866 46.3649 45.5154 39.2627 40.3271 38.0306C35.6619 36.9226 33.3332 37.1866 32.5428 37.2762C32.4219 37.2899 32.337 37.2995 32.2852 37.2995C30.287 37.397 25.9395 37.6796 24.5358 38.0306C22.7812 38.4692 17.3713 40.9549 16.7864 50.1665C16.5798 53.4201 16.1566 57.7145 15.7484 61.8573C15.2319 67.0976 14.7394 72.0956 14.7394 74.4382C14.7393 81.1378 21.3638 86.9503 31.9529 86.9503C41.4529 86.9503 51.381 82.7432 50.5622 74.4382C49.7434 66.1332 48.4664 54.7966 47.9303 50.1665Z" fill="#2B4666"/>
<path d="M47.8307 78.0128C47.8307 81.5336 41.045 84.3878 32.6744 84.3878C24.3039 84.3878 17.5182 81.5336 17.5182 78.0128C17.5182 74.492 24.3039 71.6378 32.6744 71.6378C41.045 71.6378 47.8307 74.492 47.8307 78.0128Z" fill="#C3E8F9"/>
<path fill-rule="evenodd" clip-rule="evenodd" d="M31.9576 37.3161C33.099 37.4255 34.5342 37.6483 36.307 38.0693C41.4912 39.3005 43.6607 46.397 43.9042 50.1956C44.4399 54.8221 45.7158 66.1497 46.534 74.4482C47.2926 82.1422 38.82 86.3163 30.0161 86.8835C30.6458 86.9277 31.2916 86.9503 31.9529 86.9503C41.4529 86.9503 51.381 82.7432 50.5622 74.4382C49.7434 66.1332 48.4664 54.7966 47.9303 50.1665C47.6866 46.3649 45.5154 39.2627 40.3271 38.0306C35.6619 36.9226 33.3332 37.1866 32.5429 37.2762C32.4219 37.2899 32.337 37.2995 32.2853 37.2995C32.1821 37.3045 32.0726 37.3101 31.9576 37.3161Z" fill="#AEDBEE"/>
<path d="M48.6402 68.4609C48.6528 69.341 48.0196 70.0637 47.2258 70.0751C46.4319 70.0865 45.7781 69.3823 45.7655 68.5022C45.7528 67.6221 46.3861 66.8994 47.1799 66.888C47.9737 66.8765 48.6275 67.5807 48.6402 68.4609Z" fill="white"/>
<path d="M49.268 73.7734C49.2806 74.6535 48.6474 75.3762 47.8536 75.3876C47.0597 75.399 46.4059 74.6948 46.3933 73.8147C46.3806 72.9346 47.0139 72.2119 47.8077 72.2005C48.6015 72.189 49.2553 72.8932 49.268 73.7734Z" fill="white"/>
<path d="M43.9341 73.19C43.9468 74.0701 43.3135 74.7928 42.5197 74.8043C41.7259 74.8157 41.0721 74.1115 41.0594 73.2313C41.0468 72.3512 41.68 71.6285 42.4739 71.6171C43.2677 71.6057 43.9215 72.3099 43.9341 73.19Z" fill="white"/>
<path d="M38.6006 71.6894C38.6133 72.5695 37.98 73.2922 37.1862 73.3036C36.3924 73.3151 35.7386 72.6108 35.7259 71.7307C35.7133 70.8506 36.3465 70.1279 37.1404 70.1165C37.9342 70.1051 38.588 70.8093 38.6006 71.6894Z" fill="white"/>
<path d="M40.5235 78.0943C40.5361 78.9744 39.9029 79.6971 39.1091 79.7085C38.3152 79.72 37.6614 79.0158 37.6488 78.1356C37.6361 77.2555 38.2694 76.5328 39.0632 76.5214C39.857 76.51 40.5108 77.2142 40.5235 78.0943Z" fill="white"/>
<path d="M36.7553 83.0364C36.768 83.9165 36.1347 84.6393 35.3409 84.6507C34.547 84.6621 33.8933 83.9579 33.8806 83.0778C33.8679 82.1977 34.5012 81.4749 35.295 81.4635C36.0888 81.4521 36.7426 82.1563 36.7553 83.0364Z" fill="white"/>
<path d="M31.6276 80.7974C31.6361 81.3873 31.2116 81.8717 30.6795 81.8794C30.1474 81.887 29.7092 81.415 29.7007 80.8251C29.6922 80.2351 30.1167 79.7507 30.6488 79.743C31.1809 79.7354 31.6191 80.2074 31.6276 80.7974Z" fill="white"/>
<path d="M27.455 81.9612C27.4635 82.5511 27.039 83.0356 26.5069 83.0432C25.9748 83.0509 25.5365 82.5788 25.5281 81.9889C25.5196 81.399 25.944 80.9145 26.4761 80.9069C27.0082 80.8992 27.4465 81.3712 27.455 81.9612Z" fill="white"/>
<path d="M30.6795 77.0467C30.6879 77.6367 30.2635 78.1211 29.7314 78.1288C29.1993 78.1364 28.761 77.6644 28.7525 77.0745C28.7441 76.4845 29.1685 76.0001 29.7006 75.9924C30.2327 75.9848 30.671 76.4568 30.6795 77.0467Z" fill="white"/>
<path d="M41.0519 81.6717C41.0604 82.2617 40.6359 82.7461 40.1038 82.7538C39.5717 82.7614 39.1335 82.2894 39.125 81.6995C39.1165 81.1095 39.541 80.6251 40.0731 80.6174C40.6052 80.6098 41.0434 81.0818 41.0519 81.6717Z" fill="white"/>
<path d="M33.638 72.7782C33.6464 73.3681 33.222 73.8526 32.6899 73.8602C32.1578 73.8679 31.7195 73.3958 31.711 72.8059C31.7026 72.216 32.127 71.7315 32.6591 71.7239C33.1912 71.7162 33.6295 72.1883 33.638 72.7782Z" fill="white"/>
<path d="M37.9277 67.6234C37.9345 68.1002 37.5915 68.4918 37.1614 68.498C36.7313 68.5042 36.3771 68.1226 36.3702 67.6458C36.3633 67.169 36.7064 66.7774 37.1365 66.7712C37.5666 66.765 37.9208 67.1466 37.9277 67.6234Z" fill="white"/>
<path d="M45.7302 65.2171C45.737 65.694 45.3939 66.0855 44.9639 66.0917C44.5338 66.0979 44.1796 65.7164 44.1727 65.2395C44.1658 64.7627 44.5089 64.3711 44.939 64.365C45.3691 64.3588 45.7233 64.7403 45.7302 65.2171Z" fill="white"/>
<path d="M47.9815 60.8109C47.9884 61.2877 47.6453 61.6793 47.2152 61.6855C46.7851 61.6917 46.4309 61.3101 46.424 60.8333C46.4172 60.3565 46.7603 59.9649 47.1904 59.9587C47.6204 59.9525 47.9747 60.3341 47.9815 60.8109Z" fill="white"/>
<path d="M43.9447 63.4679C43.9515 63.9447 43.6084 64.3363 43.1783 64.3425C42.7482 64.3486 42.394 63.9671 42.3872 63.4903C42.3803 63.0134 42.7234 62.6219 43.1535 62.6157C43.5836 62.6095 43.9378 62.991 43.9447 63.4679Z" fill="white"/>
<path d="M45.9403 70.9367C45.9471 71.4136 45.604 71.8051 45.1739 71.8113C44.7439 71.8175 44.3896 71.436 44.3828 70.9591C44.3759 70.4823 44.719 70.0907 45.1491 70.0846C45.5792 70.0784 45.9334 70.4599 45.9403 70.9367Z" fill="white"/>
<path d="M40.6795 74.1877C40.6864 74.6646 40.3433 75.0561 39.9132 75.0623C39.4831 75.0685 39.1289 74.687 39.122 74.2101C39.1152 73.7333 39.4583 73.3417 39.8884 73.3355C40.3184 73.3294 40.6727 73.7109 40.6795 74.1877Z" fill="white"/>
<path d="M46.6334 78.6009C46.6514 79.8573 45.7474 80.889 44.6142 80.9053C43.4809 80.9216 42.5476 79.9163 42.5296 78.6599C42.5115 77.4035 43.4155 76.3717 44.5487 76.3554C45.682 76.3391 46.6153 77.3444 46.6334 78.6009Z" fill="white"/>
<path d="M36.7456 77.3539C36.7636 78.6103 35.8596 79.6421 34.7264 79.6584C33.5931 79.6747 32.6598 78.6694 32.6417 77.4129C32.6237 76.1565 33.5277 75.1248 34.6609 75.1085C35.7942 75.0922 36.7275 76.0975 36.7456 77.3539Z" fill="white"/>
<path d="M43.5487 68.1005C43.5667 69.3569 42.6627 70.3886 41.5295 70.405C40.3962 70.4213 39.4629 69.4159 39.4448 68.1595C39.4268 66.9031 40.3308 65.8714 41.464 65.8551C42.5973 65.8388 43.5306 66.8441 43.5487 68.1005Z" fill="white"/>
<path fill-rule="evenodd" clip-rule="evenodd" d="M21.5487 46.0222C21.9923 46.3513 22.0851 46.9776 21.756 47.4212C21.4316 47.8584 20.4163 49.9665 20.0743 53.9729C19.7248 58.0671 19.4293 62.0454 19.3254 63.5206C19.2866 64.0715 18.8086 64.4866 18.2576 64.4478C17.7067 64.4091 17.2916 63.931 17.3304 63.3801C17.4348 61.8969 17.731 57.9086 18.0815 53.8028C18.4395 49.6092 19.5159 47.0839 20.1498 46.2295C20.4789 45.7859 21.1052 45.6931 21.5487 46.0222Z" fill="white"/>
<path fill-rule="evenodd" clip-rule="evenodd" d="M40.433 49.1826C39.6069 49.2453 38.988 49.9657 39.0506 50.7917L40.9514 75.8677C41.014 76.6937 41.7345 77.3126 42.5605 77.25C43.3866 77.1874 44.0055 76.467 43.9428 75.6409L42.042 50.565C41.9794 49.7389 41.259 49.12 40.433 49.1826Z" fill="#89C3D6"/>
<path fill-rule="evenodd" clip-rule="evenodd" d="M23.845 49.1826C24.6711 49.2453 25.2899 49.9657 25.2273 50.7917L23.3265 75.8677C23.2639 76.6937 22.5435 77.3126 21.7174 77.25C20.8914 77.1874 20.2725 76.467 20.3351 75.6409L22.2359 50.565C22.2985 49.7389 23.0189 49.12 23.845 49.1826Z" fill="#9ED0E0"/>
<path fill-rule="evenodd" clip-rule="evenodd" d="M31.9928 50.6404C32.8212 50.6404 33.4928 51.312 33.4928 52.1404V79.6289C33.4928 80.4573 32.8212 81.1289 31.9928 81.1289C31.1644 81.1289 30.4928 80.4573 30.4928 79.6289V52.1404C30.4928 51.312 31.1644 50.6404 31.9928 50.6404Z" fill="#7EB8CB"/>
<path d="M31.9693 44.331C37.7835 44.331 42.4968 42.5046 42.4968 40.2516V29.2845H21.4418V40.2516C21.4418 42.5046 26.1551 44.331 31.9693 44.331Z" fill="#84BCEE"/>
<path fill-rule="evenodd" clip-rule="evenodd" d="M19.4418 29.2845C19.4418 28.18 20.3372 27.2845 21.4418 27.2845H42.4968C43.6014 27.2845 44.4968 28.18 44.4968 29.2845V40.2516C44.4968 41.5663 43.8013 42.5988 43.0205 43.3141C42.2411 44.0282 41.2239 44.5794 40.136 45.001C37.9472 45.8492 35.0592 46.331 31.9693 46.331C28.8794 46.331 25.9914 45.8492 23.8026 45.001C22.7146 44.5794 21.6975 44.0282 20.918 43.3141C20.1372 42.5988 19.4418 41.5663 19.4418 40.2516V29.2845ZM42.4968 40.2516C42.4968 42.5046 37.7835 44.331 31.9693 44.331C26.1551 44.331 21.4418 42.5046 21.4418 40.2516V29.2845H42.4968V40.2516Z" fill="#2B4666"/>
<path d="M42.4968 40.2516V29.2845H37.6716L37.858 43.6336C40.6568 42.9004 42.4968 41.6592 42.4968 40.2516Z" fill="#629BCE"/>
<path d="M42.4968 29.449C42.4968 31.702 37.7835 33.5284 31.9693 33.5284C26.1551 33.5284 21.4418 31.702 21.4418 29.449C21.4418 27.196 26.1551 25.3696 31.9693 25.3696C37.7835 25.3696 42.4968 27.196 42.4968 29.449Z" fill="#AACFF1"/>
<path fill-rule="evenodd" clip-rule="evenodd" d="M40.136 34.1985C37.9472 35.0467 35.0592 35.5284 31.9693 35.5284C28.8794 35.5284 25.9914 35.0467 23.8026 34.1985C22.7146 33.7769 21.6975 33.2257 20.918 32.5116C20.1372 31.7963 19.4418 30.7638 19.4418 29.449C19.4418 28.1343 20.1372 27.1018 20.918 26.3865C21.6975 25.6724 22.7146 25.1212 23.8026 24.6996C25.9914 23.8514 28.8794 23.3696 31.9693 23.3696C35.0592 23.3696 37.9472 23.8514 40.136 24.6996C41.2239 25.1212 42.2411 25.6724 43.0205 26.3865C43.8013 27.1018 44.4968 28.1343 44.4968 29.449C44.4968 30.7638 43.8013 31.7963 43.0205 32.5116C42.2411 33.2257 41.2239 33.7769 40.136 34.1985ZM31.9693 33.5284C37.7835 33.5284 42.4968 31.702 42.4968 29.449C42.4968 27.196 37.7835 25.3696 31.9693 25.3696C26.1551 25.3696 21.4418 27.196 21.4418 29.449C21.4418 31.702 26.1551 33.5284 31.9693 33.5284Z" fill="#2B4666"/>
<path d="M34.7396 29.449C34.7396 30.8303 31.8499 31.9501 28.2852 31.9501C24.7205 31.9501 21.8308 30.8303 21.8308 29.449C21.8308 28.0677 24.7205 26.948 28.2852 26.948C31.8499 26.948 34.7396 28.0677 34.7396 29.449Z" fill="#ECF6FF"/>
<path d="M28.1404 29.2845C28.1404 29.8023 27.3849 30.222 26.4529 30.222C25.5209 30.222 24.7654 29.8023 24.7654 29.2845C24.7654 28.7668 25.5209 28.347 26.4529 28.347C27.3849 28.347 28.1404 28.7668 28.1404 29.2845Z" fill="#2B4666"/>
<path d="M33.6567 27.5658C33.6567 28.0836 32.9012 28.5033 31.9692 28.5033C31.0373 28.5033 30.2817 28.0836 30.2817 27.5658C30.2817 27.048 31.0373 26.6283 31.9692 26.6283C32.9012 26.6283 33.6567 27.048 33.6567 27.5658Z" fill="#2B4666"/>
<path d="M39.1727 28.972C39.1727 29.4898 38.4172 29.9095 37.4852 29.9095C36.5532 29.9095 35.7977 29.4898 35.7977 28.972C35.7977 28.4543 36.5532 28.0345 37.4852 28.0345C38.4172 28.0345 39.1727 28.4543 39.1727 28.972Z" fill="#2B4666"/>
<path d="M33.6565 30.6595C33.6565 31.1773 32.901 31.597 31.969 31.597C31.037 31.597 30.2815 31.1773 30.2815 30.6595C30.2815 30.1418 31.037 29.722 31.969 29.722C32.901 29.722 33.6565 30.1418 33.6565 30.6595Z" fill="#2B4666"/>
<path fill-rule="evenodd" clip-rule="evenodd" d="M24.2029 35.8253C24.7552 35.8253 25.2029 36.273 25.2029 36.8253V40.7628C25.2029 41.3151 24.7552 41.7628 24.2029 41.7628C23.6506 41.7628 23.2029 41.3151 23.2029 40.7628V36.8253C23.2029 36.273 23.6506 35.8253 24.2029 35.8253Z" fill="#B6DDFF"/>
</svg>
