<svg width="96" height="96" viewBox="0 0 96 96" fill="none" xmlns="http://www.w3.org/2000/svg">
<path d="M53.0792 31.6108C34.0163 36.8378 20.0096 46.7064 11.3434 60.608C2.67721 74.5096 11.0081 83.5714 24.9201 82.3981C38.832 81.2248 62.1304 73.3469 76.0423 62.9549C89.9543 52.5628 89.2837 45.1877 86.9371 39.824C84.5905 34.4604 73.8633 25.9118 53.0792 31.6108Z" fill="#FAB13D"/>
<path fill-rule="evenodd" clip-rule="evenodd" d="M9.64619 59.55C18.6244 45.1478 33.0932 35.0171 52.5503 29.682C73.9865 23.8042 85.9097 32.486 88.7694 39.0224C90.062 41.9769 90.9721 45.6964 89.483 50.1394C88.0229 54.496 84.3565 59.2407 77.2392 64.5572C70.0773 69.9071 60.5834 74.5553 51.1705 78.011C41.7599 81.4658 32.2762 83.7848 25.0882 84.391C17.7629 85.0088 11.3457 82.9775 8.03425 78.3141C4.64368 73.5392 5.08569 66.8656 9.64619 59.55ZM11.3434 60.608C20.0096 46.7064 34.0163 36.8378 53.0792 31.6108C73.8633 25.9118 84.5905 34.4604 86.9371 39.824C89.2837 45.1877 89.9543 52.5628 76.0423 62.9549C62.1304 73.347 38.832 81.2248 24.9201 82.3981C11.0081 83.5714 2.6772 74.5096 11.3434 60.608Z" fill="#B7690D"/>
<path d="M26.2997 47.5913C18.4687 52.3837 13.4927 58.5945 11.42 65.9156C9.3473 73.2366 14.2339 76.2047 20.2898 73.8858C26.3456 71.567 27.7435 64.468 32.6097 58.0359C37.4759 51.6037 42.7398 49.1648 42.7398 45.6379C42.7398 42.9164 34.8378 42.3663 26.2997 47.5913Z" fill="#FCC66F"/>
<path fill-rule="evenodd" clip-rule="evenodd" d="M23.343 54.7055C24.1615 55.4473 24.2237 56.7121 23.482 57.5306C20.4635 60.8613 19.1684 63.7268 18.1697 65.9365C18.0479 66.206 17.9305 66.4657 17.8149 66.7153C17.3509 67.7176 16.1621 68.154 15.1597 67.6899C14.1574 67.2259 13.721 66.0371 14.1851 65.0348C14.2926 64.8024 14.405 64.5531 14.5245 64.2881C15.5377 62.0399 17.062 58.658 20.518 54.8445C21.2598 54.026 22.5246 53.9638 23.343 54.7055Z" fill="#FFDFAD"/>
<path fill-rule="evenodd" clip-rule="evenodd" d="M17.7821 82.0192C33.1365 78.9346 53.27 71.2326 66.1734 61.594C81.7102 49.9882 80.9613 41.7517 78.3407 35.7615C77.668 34.224 76.3786 32.452 74.4409 30.775C81.5374 32.6729 85.5993 36.7661 86.9371 39.824C89.2837 45.1877 89.9543 52.5628 76.0423 62.9549C62.1304 73.3469 38.832 81.2248 24.9201 82.3981C22.3212 82.6172 19.917 82.4792 17.7821 82.0192Z" fill="#EDA024"/>
<path d="M38.3292 63.6251C34.5747 56.25 23.4675 52.3949 18.3832 51.3892C20.2605 48.3051 24.0821 45.7462 25.7582 44.8523C33.9378 49.9478 37.547 59.4906 38.3292 63.6251Z" fill="#D08814"/>
<path d="M55.2134 56.9775C50.8287 46.9987 40.7179 39.235 35.6336 38.2293C38.8843 35.5078 45.2215 34.0582 46.8976 33.1643C56.2717 38.2293 54.4312 52.8431 55.2134 56.9775Z" fill="#A56112"/>
<path d="M71.6936 45.4868C67.6114 35.2811 62.6403 33.1394 58.2625 30.3652C60.5808 29.3845 66.5571 29.6126 68.4429 29.3845C72.374 34.8274 72.374 39.2122 71.6936 45.4868Z" fill="#9C5807"/>
<path fill-rule="evenodd" clip-rule="evenodd" d="M24.9796 44.9356C25.096 44.3958 25.6281 44.0525 26.168 44.169C28.3847 44.6471 31.1984 46.4504 33.7799 49.4614C36.3844 52.4991 38.8168 56.8361 40.2326 62.519C40.3661 63.0549 40.0399 63.5975 39.504 63.731C38.9681 63.8646 38.4255 63.5384 38.292 63.0025C36.9485 57.6102 34.6561 53.556 32.2616 50.7632C29.8443 47.9437 27.3851 46.4775 25.7463 46.124C25.2064 46.0076 24.8632 45.4755 24.9796 44.9356Z" fill="#FFDFAC"/>
<path fill-rule="evenodd" clip-rule="evenodd" d="M47.4355 32.9741C47.7493 32.5196 48.3721 32.4056 48.8266 32.7194C50.6442 33.9744 52.7234 36.8262 54.3436 40.7898C55.9801 44.7935 57.1961 50.0437 57.1961 56.2216C57.1961 56.7739 56.7484 57.2216 56.1961 57.2216C55.6439 57.2216 55.1961 56.7739 55.1961 56.2216C55.1961 50.3038 54.0308 45.3106 52.4923 41.5466C50.9373 37.7425 49.0477 35.3025 47.6902 34.3652C47.2357 34.0514 47.1217 33.4286 47.4355 32.9741Z" fill="#FFDFAC"/>
<path fill-rule="evenodd" clip-rule="evenodd" d="M68.4262 29.2411C68.7767 28.8143 69.4069 28.7525 69.8337 29.1031C71.6532 30.5977 72.9408 33.1377 73.6296 35.9913C74.3241 38.8686 74.4422 42.1903 73.8084 45.3792C73.7007 45.9209 73.1743 46.2728 72.6327 46.1651C72.091 46.0574 71.7391 45.531 71.8468 44.9894C72.4225 42.0927 72.3139 39.0642 71.6854 36.4606C71.0513 33.8334 69.9197 31.762 68.5642 30.6485C68.1374 30.298 68.0756 29.6678 68.4262 29.2411Z" fill="#FFDFAC"/>
<path d="M71.4415 58.5356C71.1846 59.5839 70.3491 60.2801 69.5754 60.0905C68.8016 59.9008 68.3826 58.8973 68.6395 57.849C68.8964 56.8007 69.7319 56.1045 70.5056 56.2942C71.2794 56.4838 71.6984 57.4873 71.4415 58.5356Z" fill="#D48A15"/>
<path d="M64.52 61.1689C64.3113 62.0204 63.6326 62.5859 63.004 62.4319C62.3755 62.2779 62.0351 61.4627 62.2438 60.6111C62.4525 59.7595 63.1312 59.194 63.7597 59.348C64.3883 59.5021 64.7287 60.3173 64.52 61.1689Z" fill="#D48A15"/>
<path d="M69.4716 63.7392C69.2629 64.5908 68.5842 65.1562 67.9557 65.0022C67.3271 64.8482 66.9868 64.033 67.1954 63.1814C67.4041 62.3298 68.0828 61.7643 68.7114 61.9184C69.3399 62.0724 69.6803 62.8876 69.4716 63.7392Z" fill="#D48A15"/>
<path d="M67.7057 54.217C67.497 55.0686 66.8183 55.634 66.1897 55.48C65.5612 55.326 65.2208 54.5108 65.4295 53.6592C65.6382 52.8076 66.3169 52.2421 66.9454 52.3962C67.574 52.5502 67.9144 53.3654 67.7057 54.217Z" fill="#D48A15"/>
<path d="M76.3152 56.3924C76.1066 57.244 75.4278 57.8095 74.7993 57.6554C74.1707 57.5014 73.8304 56.6862 74.0391 55.8346C74.2477 54.983 74.9264 54.4176 75.555 54.5716C76.1835 54.7256 76.5239 55.5408 76.3152 56.3924Z" fill="#D48A15"/>
<path d="M73.8762 52.9074C73.6408 53.8677 72.8754 54.5054 72.1666 54.3317C71.4578 54.158 71.074 53.2387 71.3093 52.2784C71.5446 51.318 72.31 50.6804 73.0188 50.8541C73.7276 51.0277 74.1115 51.947 73.8762 52.9074Z" fill="#D48A15"/>
<path d="M81.5871 53.4623C81.3518 54.4226 80.5864 55.0603 79.8776 54.8866C79.1688 54.7129 78.7849 53.7936 79.0203 52.8333C79.2556 51.873 80.021 51.2353 80.7298 51.409C81.4386 51.5827 81.8224 52.502 81.5871 53.4623Z" fill="#D48A15"/>
<path d="M79.686 49.3557C79.4507 50.316 78.6853 50.9537 77.9765 50.78C77.2677 50.6063 76.8839 49.687 77.1192 48.7267C77.3545 47.7664 78.1199 47.1287 78.8287 47.3024C79.5375 47.476 79.9213 48.3954 79.686 49.3557Z" fill="#D48A15"/>
<path d="M86.3386 48.7037C86.1033 49.6641 85.3379 50.3017 84.6291 50.128C83.9203 49.9544 83.5364 49.0351 83.7718 48.0747C84.0071 47.1144 84.7725 46.4767 85.4813 46.6504C86.1901 46.8241 86.5739 47.7434 86.3386 48.7037Z" fill="#D48A15"/>
<path d="M79.4341 57.6631C79.2801 58.2916 78.7792 58.7089 78.3153 58.5952C77.8514 58.4816 77.6003 57.8799 77.7543 57.2515C77.9083 56.623 78.4092 56.2057 78.873 56.3193C79.3369 56.433 79.5881 57.0346 79.4341 57.6631Z" fill="#D48A15"/>
<path d="M74.2179 61.5942C74.0638 62.2227 73.563 62.64 73.0991 62.5263C72.6352 62.4126 72.384 61.811 72.538 61.1826C72.692 60.5541 73.1929 60.1368 73.6568 60.2504C74.1207 60.3641 74.3719 60.9657 74.2179 61.5942Z" fill="#D48A15"/>
<path d="M59.8921 69.2674C59.7381 69.8958 59.2372 70.3131 58.7733 70.1995C58.3095 70.0858 58.0583 69.4842 58.2123 68.8557C58.3663 68.2272 58.8672 67.8099 59.3311 67.9236C59.7949 68.0373 60.0461 68.6389 59.8921 69.2674Z" fill="#D48A15"/>
<path d="M65.3305 65.487C65.1765 66.1154 64.6756 66.5328 64.2117 66.4191C63.7479 66.3054 63.4967 65.7038 63.6507 65.0753C63.8047 64.4469 64.3056 64.0295 64.7694 64.1432C65.2333 64.2569 65.4845 64.8585 65.3305 65.487Z" fill="#D48A15"/>
<path d="M61.3102 64.7204C61.185 65.2315 60.7777 65.5708 60.4004 65.4784C60.0232 65.386 59.819 64.8967 59.9442 64.3857C60.0694 63.8746 60.4768 63.5352 60.854 63.6277C61.2312 63.7201 61.4355 64.2093 61.3102 64.7204Z" fill="#D48A15"/>
<path d="M63.093 56.8969C62.939 57.5253 62.4381 57.9427 61.9742 57.829C61.5104 57.7153 61.2592 57.1137 61.4132 56.4852C61.5672 55.8568 62.0681 55.4394 62.5319 55.5531C62.9958 55.6668 63.247 56.2684 63.093 56.8969Z" fill="#D48A15"/>
<path d="M70.8804 50.3682C70.7264 50.9967 70.2255 51.414 69.7617 51.3003C69.2978 51.1866 69.0466 50.585 69.2006 49.9565C69.3546 49.3281 69.8555 48.9108 70.3194 49.0244C70.7832 49.1381 71.0344 49.7397 70.8804 50.3682Z" fill="#D48A15"/>
<path d="M76.0171 46.2088C75.863 46.8373 75.3622 47.2546 74.8983 47.1409C74.4344 47.0273 74.1832 46.4256 74.3372 45.7972C74.4912 45.1687 74.9921 44.7514 75.456 44.8651C75.9199 44.9787 76.1711 45.5804 76.0171 46.2088Z" fill="#D48A15"/>
<path d="M81.7343 45.1979C81.5803 45.8264 81.0794 46.2437 80.6156 46.13C80.1517 46.0164 79.9005 45.4148 80.0545 44.7863C80.2085 44.1578 80.7094 43.7405 81.1733 43.8542C81.6372 43.9678 81.8883 44.5695 81.7343 45.1979Z" fill="#D48A15"/>
<path d="M85.334 44.7863C85.18 45.4147 84.6791 45.8321 84.2153 45.7184C83.7514 45.6047 83.5002 45.0031 83.6542 44.3746C83.8082 43.7462 84.3091 43.3288 84.773 43.4425C85.2369 43.5562 85.488 44.1578 85.334 44.7863Z" fill="#D48A15"/>
</svg>
